<mxfile host="app.diagrams.net" modified="2024-03-11T14:10:11.963Z" agent="Mozilla/5.0 (Macintosh; Intel Mac OS X 10_15_7) AppleWebKit/605.1.15 (KHTML, like Gecko) Version/17.4 Safari/605.1.15" etag="1hvBDhEuCYeH8_mbQst4" version="24.0.4" type="device">
  <diagram name="Page-1" id="c4acf3e9-155e-7222-9cf6-157b1a14988f">
    <mxGraphModel dx="1735" dy="2276" grid="1" gridSize="10" guides="1" tooltips="1" connect="1" arrows="1" fold="1" page="1" pageScale="1" pageWidth="850" pageHeight="1100" background="none" math="0" shadow="0">
      <root>
        <mxCell id="0" />
        <mxCell id="1" parent="0" />
        <mxCell id="4uzBW2pIlfygLjE6EFj8-16" value="CommonMob" style="swimlane;fontStyle=1;align=center;verticalAlign=top;childLayout=stackLayout;horizontal=1;startSize=26;horizontalStack=0;resizeParent=1;resizeParentMax=0;resizeLast=0;collapsible=1;marginBottom=0;whiteSpace=wrap;html=1;strokeColor=#028090;fontColor=#E4FDE1;fillColor=#F45B69;" vertex="1" parent="1">
          <mxGeometry x="440" y="-1040" width="160" height="160" as="geometry" />
        </mxCell>
        <mxCell id="4uzBW2pIlfygLjE6EFj8-17" value="&lt;font color=&quot;#ff0000&quot;&gt;&lt;span style=&quot;caret-color: rgb(255, 0, 0);&quot;&gt;-health_ : int32_t&lt;/span&gt;&lt;/font&gt;&lt;div&gt;&lt;font color=&quot;#ff0000&quot;&gt;&lt;span style=&quot;caret-color: rgb(255, 0, 0);&quot;&gt;-armor_ : int32_t&lt;/span&gt;&lt;/font&gt;&lt;/div&gt;&lt;div&gt;&lt;font color=&quot;#ff0000&quot;&gt;&lt;span style=&quot;caret-color: rgb(255, 0, 0);&quot;&gt;-mana_ : int32_t&lt;/span&gt;&lt;/font&gt;&lt;/div&gt;&lt;div&gt;&lt;font color=&quot;#ff0000&quot;&gt;&lt;span style=&quot;caret-color: rgb(255, 0, 0);&quot;&gt;-basic_damage_ : int32_t&lt;/span&gt;&lt;/font&gt;&lt;/div&gt;" style="text;strokeColor=none;fillColor=none;align=left;verticalAlign=top;spacingLeft=4;spacingRight=4;overflow=hidden;rotatable=0;points=[[0,0.5],[1,0.5]];portConstraint=eastwest;whiteSpace=wrap;html=1;fontColor=#E4FDE1;" vertex="1" parent="4uzBW2pIlfygLjE6EFj8-16">
          <mxGeometry y="26" width="160" height="64" as="geometry" />
        </mxCell>
        <mxCell id="4uzBW2pIlfygLjE6EFj8-18" value="" style="line;strokeWidth=1;fillColor=none;align=left;verticalAlign=middle;spacingTop=-1;spacingLeft=3;spacingRight=3;rotatable=0;labelPosition=right;points=[];portConstraint=eastwest;strokeColor=inherit;fontColor=#E4FDE1;" vertex="1" parent="4uzBW2pIlfygLjE6EFj8-16">
          <mxGeometry y="90" width="160" height="8" as="geometry" />
        </mxCell>
        <mxCell id="4uzBW2pIlfygLjE6EFj8-19" value="&lt;font color=&quot;#ff0000&quot;&gt;+Defence()&lt;/font&gt;&lt;div&gt;&lt;font color=&quot;#ff0000&quot;&gt;+BasicAttack()&lt;/font&gt;&lt;/div&gt;&lt;div&gt;&lt;font color=&quot;#ff0000&quot;&gt;&lt;span style=&quot;caret-color: rgb(255, 0, 0);&quot;&gt;-CountProbability()&lt;/span&gt;&lt;/font&gt;&lt;/div&gt;" style="text;strokeColor=none;fillColor=none;align=left;verticalAlign=top;spacingLeft=4;spacingRight=4;overflow=hidden;rotatable=0;points=[[0,0.5],[1,0.5]];portConstraint=eastwest;whiteSpace=wrap;html=1;fontColor=#E4FDE1;" vertex="1" parent="4uzBW2pIlfygLjE6EFj8-16">
          <mxGeometry y="98" width="160" height="62" as="geometry" />
        </mxCell>
        <mxCell id="4uzBW2pIlfygLjE6EFj8-20" value="" style="endArrow=classic;html=1;rounded=0;strokeColor=#028090;fontColor=#E4FDE1;fillColor=#F45B69;" edge="1" parent="1">
          <mxGeometry width="50" height="50" relative="1" as="geometry">
            <mxPoint x="520" y="-830" as="sourcePoint" />
            <mxPoint x="520" y="-880" as="targetPoint" />
          </mxGeometry>
        </mxCell>
        <mxCell id="4uzBW2pIlfygLjE6EFj8-21" value="" style="endArrow=none;html=1;rounded=0;strokeColor=#028090;fontColor=#E4FDE1;fillColor=#F45B69;" edge="1" parent="1">
          <mxGeometry width="50" height="50" relative="1" as="geometry">
            <mxPoint x="440" y="-830" as="sourcePoint" />
            <mxPoint x="600" y="-830" as="targetPoint" />
            <Array as="points" />
          </mxGeometry>
        </mxCell>
        <mxCell id="4uzBW2pIlfygLjE6EFj8-22" value="DemonCultist" style="swimlane;fontStyle=1;align=center;verticalAlign=top;childLayout=stackLayout;horizontal=1;startSize=26;horizontalStack=0;resizeParent=1;resizeParentMax=0;resizeLast=0;collapsible=1;marginBottom=0;whiteSpace=wrap;html=1;strokeColor=#028090;fontColor=#E4FDE1;fillColor=#F45B69;" vertex="1" parent="1">
          <mxGeometry x="240" y="-790" width="160" height="86" as="geometry" />
        </mxCell>
        <mxCell id="4uzBW2pIlfygLjE6EFj8-23" value="+ field: type" style="text;strokeColor=none;fillColor=none;align=left;verticalAlign=top;spacingLeft=4;spacingRight=4;overflow=hidden;rotatable=0;points=[[0,0.5],[1,0.5]];portConstraint=eastwest;whiteSpace=wrap;html=1;fontColor=#E4FDE1;" vertex="1" parent="4uzBW2pIlfygLjE6EFj8-22">
          <mxGeometry y="26" width="160" height="26" as="geometry" />
        </mxCell>
        <mxCell id="4uzBW2pIlfygLjE6EFj8-24" value="" style="line;strokeWidth=1;fillColor=none;align=left;verticalAlign=middle;spacingTop=-1;spacingLeft=3;spacingRight=3;rotatable=0;labelPosition=right;points=[];portConstraint=eastwest;strokeColor=inherit;fontColor=#E4FDE1;" vertex="1" parent="4uzBW2pIlfygLjE6EFj8-22">
          <mxGeometry y="52" width="160" height="8" as="geometry" />
        </mxCell>
        <mxCell id="4uzBW2pIlfygLjE6EFj8-25" value="+ method(type): type" style="text;strokeColor=none;fillColor=none;align=left;verticalAlign=top;spacingLeft=4;spacingRight=4;overflow=hidden;rotatable=0;points=[[0,0.5],[1,0.5]];portConstraint=eastwest;whiteSpace=wrap;html=1;fontColor=#E4FDE1;" vertex="1" parent="4uzBW2pIlfygLjE6EFj8-22">
          <mxGeometry y="60" width="160" height="26" as="geometry" />
        </mxCell>
        <mxCell id="4uzBW2pIlfygLjE6EFj8-26" value="PsykerTraitor" style="swimlane;fontStyle=1;align=center;verticalAlign=top;childLayout=stackLayout;horizontal=1;startSize=26;horizontalStack=0;resizeParent=1;resizeParentMax=0;resizeLast=0;collapsible=1;marginBottom=0;whiteSpace=wrap;html=1;strokeColor=#028090;fontColor=#E4FDE1;fillColor=#F45B69;" vertex="1" parent="1">
          <mxGeometry x="440" y="-790" width="160" height="86" as="geometry" />
        </mxCell>
        <mxCell id="4uzBW2pIlfygLjE6EFj8-27" value="+ field: type" style="text;strokeColor=none;fillColor=none;align=left;verticalAlign=top;spacingLeft=4;spacingRight=4;overflow=hidden;rotatable=0;points=[[0,0.5],[1,0.5]];portConstraint=eastwest;whiteSpace=wrap;html=1;fontColor=#E4FDE1;" vertex="1" parent="4uzBW2pIlfygLjE6EFj8-26">
          <mxGeometry y="26" width="160" height="26" as="geometry" />
        </mxCell>
        <mxCell id="4uzBW2pIlfygLjE6EFj8-28" value="" style="line;strokeWidth=1;fillColor=none;align=left;verticalAlign=middle;spacingTop=-1;spacingLeft=3;spacingRight=3;rotatable=0;labelPosition=right;points=[];portConstraint=eastwest;strokeColor=inherit;fontColor=#E4FDE1;" vertex="1" parent="4uzBW2pIlfygLjE6EFj8-26">
          <mxGeometry y="52" width="160" height="8" as="geometry" />
        </mxCell>
        <mxCell id="4uzBW2pIlfygLjE6EFj8-29" value="+ method(type): type" style="text;strokeColor=none;fillColor=none;align=left;verticalAlign=top;spacingLeft=4;spacingRight=4;overflow=hidden;rotatable=0;points=[[0,0.5],[1,0.5]];portConstraint=eastwest;whiteSpace=wrap;html=1;fontColor=#E4FDE1;" vertex="1" parent="4uzBW2pIlfygLjE6EFj8-26">
          <mxGeometry y="60" width="160" height="26" as="geometry" />
        </mxCell>
        <mxCell id="4uzBW2pIlfygLjE6EFj8-30" value="PlagueKnight" style="swimlane;fontStyle=1;align=center;verticalAlign=top;childLayout=stackLayout;horizontal=1;startSize=26;horizontalStack=0;resizeParent=1;resizeParentMax=0;resizeLast=0;collapsible=1;marginBottom=0;whiteSpace=wrap;html=1;strokeColor=#028090;fontColor=#E4FDE1;fillColor=#F45B69;" vertex="1" parent="1">
          <mxGeometry x="640" y="-790" width="160" height="86" as="geometry" />
        </mxCell>
        <mxCell id="4uzBW2pIlfygLjE6EFj8-31" value="+ field: type" style="text;strokeColor=none;fillColor=none;align=left;verticalAlign=top;spacingLeft=4;spacingRight=4;overflow=hidden;rotatable=0;points=[[0,0.5],[1,0.5]];portConstraint=eastwest;whiteSpace=wrap;html=1;fontColor=#E4FDE1;" vertex="1" parent="4uzBW2pIlfygLjE6EFj8-30">
          <mxGeometry y="26" width="160" height="26" as="geometry" />
        </mxCell>
        <mxCell id="4uzBW2pIlfygLjE6EFj8-32" value="" style="line;strokeWidth=1;fillColor=none;align=left;verticalAlign=middle;spacingTop=-1;spacingLeft=3;spacingRight=3;rotatable=0;labelPosition=right;points=[];portConstraint=eastwest;strokeColor=inherit;fontColor=#E4FDE1;" vertex="1" parent="4uzBW2pIlfygLjE6EFj8-30">
          <mxGeometry y="52" width="160" height="8" as="geometry" />
        </mxCell>
        <mxCell id="4uzBW2pIlfygLjE6EFj8-33" value="+ method(type): type" style="text;strokeColor=none;fillColor=none;align=left;verticalAlign=top;spacingLeft=4;spacingRight=4;overflow=hidden;rotatable=0;points=[[0,0.5],[1,0.5]];portConstraint=eastwest;whiteSpace=wrap;html=1;fontColor=#E4FDE1;" vertex="1" parent="4uzBW2pIlfygLjE6EFj8-30">
          <mxGeometry y="60" width="160" height="26" as="geometry" />
        </mxCell>
        <mxCell id="4uzBW2pIlfygLjE6EFj8-35" value="" style="endArrow=none;html=1;rounded=0;strokeColor=#028090;fontColor=#E4FDE1;fillColor=#F45B69;exitX=0.5;exitY=0;exitDx=0;exitDy=0;" edge="1" parent="1" source="4uzBW2pIlfygLjE6EFj8-26">
          <mxGeometry width="50" height="50" relative="1" as="geometry">
            <mxPoint x="470" y="-780" as="sourcePoint" />
            <mxPoint x="520" y="-830" as="targetPoint" />
            <Array as="points" />
          </mxGeometry>
        </mxCell>
        <mxCell id="4uzBW2pIlfygLjE6EFj8-36" value="" style="endArrow=none;html=1;rounded=0;strokeColor=#028090;fontColor=#E4FDE1;fillColor=#F45B69;exitX=0.5;exitY=0;exitDx=0;exitDy=0;" edge="1" parent="1" source="4uzBW2pIlfygLjE6EFj8-22">
          <mxGeometry width="50" height="50" relative="1" as="geometry">
            <mxPoint x="470" y="-780" as="sourcePoint" />
            <mxPoint x="520" y="-830" as="targetPoint" />
            <Array as="points">
              <mxPoint x="440" y="-830" />
            </Array>
          </mxGeometry>
        </mxCell>
        <mxCell id="4uzBW2pIlfygLjE6EFj8-37" value="" style="endArrow=none;html=1;rounded=0;strokeColor=#028090;fontColor=#E4FDE1;fillColor=#F45B69;exitX=0.5;exitY=0;exitDx=0;exitDy=0;" edge="1" parent="1" source="4uzBW2pIlfygLjE6EFj8-30">
          <mxGeometry width="50" height="50" relative="1" as="geometry">
            <mxPoint x="610" y="-780" as="sourcePoint" />
            <mxPoint x="600" y="-830" as="targetPoint" />
          </mxGeometry>
        </mxCell>
        <mxCell id="4uzBW2pIlfygLjE6EFj8-39" value="MainCharacter" style="swimlane;fontStyle=1;align=center;verticalAlign=top;childLayout=stackLayout;horizontal=1;startSize=26;horizontalStack=0;resizeParent=1;resizeParentMax=0;resizeLast=0;collapsible=1;marginBottom=0;whiteSpace=wrap;html=1;strokeColor=#028090;fontColor=#E4FDE1;fillColor=#F45B69;" vertex="1" parent="1">
          <mxGeometry x="30" y="-1080" width="160" height="422" as="geometry" />
        </mxCell>
        <mxCell id="4uzBW2pIlfygLjE6EFj8-40" value="&lt;font color=&quot;#ff0000&quot;&gt;-health_ : int32_t&lt;/font&gt;&lt;div&gt;&lt;font color=&quot;#ff0000&quot;&gt;-armor_ : int32_t&lt;/font&gt;&lt;/div&gt;&lt;div&gt;&lt;font color=&quot;#ff0000&quot;&gt;-mana_ : int32_t&lt;/font&gt;&lt;/div&gt;&lt;div&gt;&lt;font color=&quot;#ff0000&quot;&gt;-basic_damage_ : int32_t&lt;/font&gt;&lt;/div&gt;&lt;div&gt;&lt;font color=&quot;#ff0000&quot;&gt;-harisma_ : int32_t&lt;/font&gt;&lt;/div&gt;&lt;div&gt;&lt;font color=&quot;#ff0000&quot;&gt;-fatigue_ : int32_t&lt;/font&gt;&lt;/div&gt;&lt;div&gt;&lt;font color=&quot;#ff0000&quot;&gt;-hunger_ : int32_t&lt;/font&gt;&lt;/div&gt;&lt;div&gt;&lt;font color=&quot;#ff0000&quot;&gt;-strenth_ : int32_t&lt;/font&gt;&lt;/div&gt;&lt;div&gt;&lt;font color=&quot;#ff0000&quot;&gt;-agility_ : int32_t&lt;/font&gt;&lt;/div&gt;&lt;div&gt;&lt;font color=&quot;#ff0000&quot;&gt;-mastery : int32_t&lt;/font&gt;&lt;/div&gt;" style="text;strokeColor=none;fillColor=none;align=left;verticalAlign=top;spacingLeft=4;spacingRight=4;overflow=hidden;rotatable=0;points=[[0,0.5],[1,0.5]];portConstraint=eastwest;whiteSpace=wrap;html=1;fontColor=#E4FDE1;" vertex="1" parent="4uzBW2pIlfygLjE6EFj8-39">
          <mxGeometry y="26" width="160" height="154" as="geometry" />
        </mxCell>
        <mxCell id="4uzBW2pIlfygLjE6EFj8-41" value="" style="line;strokeWidth=1;fillColor=none;align=left;verticalAlign=middle;spacingTop=-1;spacingLeft=3;spacingRight=3;rotatable=0;labelPosition=right;points=[];portConstraint=eastwest;strokeColor=inherit;fontColor=#E4FDE1;" vertex="1" parent="4uzBW2pIlfygLjE6EFj8-39">
          <mxGeometry y="180" width="160" height="10" as="geometry" />
        </mxCell>
        <mxCell id="4uzBW2pIlfygLjE6EFj8-42" value="&lt;font color=&quot;#ff0000&quot;&gt;+Attack()&lt;/font&gt;&lt;div&gt;&lt;font color=&quot;#ff0000&quot;&gt;&lt;span style=&quot;caret-color: rgb(255, 0, 0);&quot;&gt;+Heal()&lt;/span&gt;&lt;/font&gt;&lt;/div&gt;&lt;div&gt;&lt;font color=&quot;#ff0000&quot;&gt;&lt;span style=&quot;caret-color: rgb(255, 0, 0);&quot;&gt;+Defence()&lt;/span&gt;&lt;/font&gt;&lt;/div&gt;&lt;div&gt;&lt;font color=&quot;#ff0000&quot;&gt;&lt;span style=&quot;caret-color: rgb(255, 0, 0);&quot;&gt;+Walk()&lt;/span&gt;&lt;/font&gt;&lt;/div&gt;&lt;div&gt;&lt;font color=&quot;#ff0000&quot;&gt;&lt;span style=&quot;caret-color: rgb(255, 0, 0);&quot;&gt;+Help()&lt;br&gt;&lt;/span&gt;&lt;/font&gt;&lt;div&gt;&lt;font color=&quot;#ff0000&quot;&gt;-FistAttack()&lt;/font&gt;&lt;/div&gt;&lt;div&gt;&lt;font color=&quot;#ff0000&quot;&gt;&lt;span style=&quot;caret-color: rgb(255, 0, 0);&quot;&gt;-ImprovisedAttack()&lt;/span&gt;&lt;/font&gt;&lt;/div&gt;&lt;/div&gt;&lt;div&gt;&lt;font color=&quot;#ff0000&quot;&gt;&lt;span style=&quot;caret-color: rgb(255, 0, 0);&quot;&gt;-GreatSlashAttack()&lt;/span&gt;&lt;/font&gt;&lt;/div&gt;&lt;div&gt;&lt;font color=&quot;#ff0000&quot;&gt;&lt;span style=&quot;caret-color: rgb(255, 0, 0);&quot;&gt;-LegAttack()&lt;/span&gt;&lt;/font&gt;&lt;/div&gt;&lt;div&gt;&lt;font color=&quot;#ff0000&quot;&gt;&lt;span style=&quot;caret-color: rgb(255, 0, 0);&quot;&gt;-KnifeAttack()&lt;/span&gt;&lt;/font&gt;&lt;/div&gt;&lt;div&gt;&lt;font color=&quot;#ff0000&quot;&gt;&lt;span style=&quot;caret-color: rgb(255, 0, 0);&quot;&gt;-SwordAttack()&lt;/span&gt;&lt;/font&gt;&lt;/div&gt;&lt;div&gt;&lt;font color=&quot;#ff0000&quot;&gt;&lt;span style=&quot;caret-color: rgb(255, 0, 0);&quot;&gt;-BareDefence()&lt;/span&gt;&lt;/font&gt;&lt;/div&gt;&lt;div&gt;&lt;font color=&quot;#ff0000&quot;&gt;&lt;span style=&quot;caret-color: rgb(255, 0, 0);&quot;&gt;-SwordDefende()&lt;/span&gt;&lt;/font&gt;&lt;/div&gt;&lt;div&gt;&lt;font color=&quot;#ff0000&quot;&gt;&lt;span style=&quot;caret-color: rgb(255, 0, 0);&quot;&gt;-ShieldDefence()&lt;/span&gt;&lt;/font&gt;&lt;/div&gt;" style="text;strokeColor=none;fillColor=none;align=left;verticalAlign=top;spacingLeft=4;spacingRight=4;overflow=hidden;rotatable=0;points=[[0,0.5],[1,0.5]];portConstraint=eastwest;whiteSpace=wrap;html=1;fontColor=#E4FDE1;" vertex="1" parent="4uzBW2pIlfygLjE6EFj8-39">
          <mxGeometry y="190" width="160" height="232" as="geometry" />
        </mxCell>
        <mxCell id="4uzBW2pIlfygLjE6EFj8-43" value="Text" style="text;html=1;align=center;verticalAlign=middle;resizable=0;points=[];autosize=1;strokeColor=none;fillColor=none;fontColor=#E4FDE1;" vertex="1" parent="1">
          <mxGeometry x="5" y="-12" width="50" height="30" as="geometry" />
        </mxCell>
        <mxCell id="4uzBW2pIlfygLjE6EFj8-44" value="Text" style="text;html=1;align=center;verticalAlign=middle;resizable=0;points=[];autosize=1;strokeColor=none;fillColor=none;fontColor=#E4FDE1;" vertex="1" parent="1">
          <mxGeometry x="845" y="28" width="50" height="30" as="geometry" />
        </mxCell>
      </root>
    </mxGraphModel>
  </diagram>
</mxfile>
